{"title":"REHAB.(Amy.Winehouse).2006.HQ.1080p.x264.AAC.[FrOnkY]","uid":15356527,"size":185004934,"categoryP":"video","categoryS":"music_videos","magnet":"?xt=urn:btih:6bbab77f81d76c1125a44c054a3c4d9cea535f9a&amp;dn=REHAB.%28Amy.Winehouse%29.2006.HQ.1080p.x264.AAC.%5BFrOnkY%5D&amp;tr=udp%3A%2F%2Ftracker.leechers-paradise.org%3A6969&amp;tr=udp%3A%2F%2Fzer0day.ch%3A1337&amp;tr=udp%3A%2F%2Fopen.demonii.com%3A1337&amp;tr=udp%3A%2F%2Ftracker.coppersurfer.tk%3A6969&amp;tr=udp%3A%2F%2Fexodus.desync.com%3A6969","seeders":2,"leechers":0,"uploader":"HDmEntEs","files":1,"time":1468975596,"description":"REHAB.(Amy.Winehouse).2006.HQ.1080p.x264.AAC.[FrOnkY].mp4\r\n\r\n\r\nFormat                                   : MPEG-4\r\nFormat profile                           : Base Media\r\nCodec ID                                 : isom\r\nFile size                                : 176 MiB\r\nDuration                                 : 3mn 33s\r\nOverall bit rate mode                    : Variable\r\nOverall bit rate                         : 6 937 Kbps\r\n\r\nVideo\r\nID                                       : 1\r\nFormat                                   : AVC\r\nFormat/Info                              : Advanced Video Codec\r\nFormat profile                           : High L4.1\r\nFormat settings, CABAC                   : Yes\r\nFormat settings, ReFrames                : 5 frames\r\nDuration                                 : 3mn 33s\r\nBit rate                                 : 6 666 Kbps\r\nMaximum bit rate                         : 12.7 Mbps\r\nWidth                                    : 1 920 pixels\r\nHeight                                   : 808 pixels\r\nDisplay aspect ratio                     : 2.40:1\r\nFrame rate mode                          : Constant\r\nFrame rate                               : 25.000 fps\r\nColor space                              : YUV\r\nChroma subsampling                       : 4:2:0\r\nBit depth                                : 8 bits\r\nScan type                                : Progressive\r\nBits/(Pixel*Frame)                       : 0.172\r\nStream size                              : 170 MiB (96%)\r\nWriting library                          : x264 core 148 r2705\r\n\r\nAudio\r\nID                                       : 2\r\nFormat                                   : AAC\r\nFormat/Info                              : Advanced Audio Codec\r\nFormat profile                           : LC\r\nCodec ID                                 : 40\r\nDuration                                 : 3mn 33s\r\nBit rate mode                            : Variable\r\nBit rate                                 : 252 Kbps\r\nMaximum bit rate                         : 284 Kbps\r\nChannel(s)                               : 2 channels\r\nChannel positions                        : Front: L R\r\nSampling rate                            : 48.0 KHz\r\nCompression mode                         : Lossy\r\nStream size                              : 6.41 MiB (4%)\r\n\r\n \nhttp://i.imgur.com/iOrYe7d.jpg","torrent":{"xt":"urn:btih:6bbab77f81d76c1125a44c054a3c4d9cea535f9a","amp;dn":"REHAB.%28Amy.Winehouse%29.2006.HQ.1080p.x264.AAC.%5BFrOnkY%5D","amp;tr":["udp%3A%2F%2Ftracker.leechers-paradise.org%3A6969","udp%3A%2F%2Fzer0day.ch%3A1337","udp%3A%2F%2Fopen.demonii.com%3A1337","udp%3A%2F%2Ftracker.coppersurfer.tk%3A6969","udp%3A%2F%2Fexodus.desync.com%3A6969"],"infoHash":"6bbab77f81d76c1125a44c054a3c4d9cea535f9a","infoHashBuffer":{"type":"Buffer","data":[107,186,183,127,129,215,108,17,37,164,76,5,74,60,77,156,234,83,95,154]},"announce":[],"urlList":[]}}